<mxfile host="Electron" agent="Mozilla/5.0 (Windows NT 10.0; Win64; x64) AppleWebKit/537.36 (KHTML, like Gecko) draw.io/26.1.1 Chrome/132.0.6834.210 Electron/34.3.3 Safari/537.36" version="26.1.1">
  <diagram name="Page-1" id="LfT_rOws8iPv-QDh3czA">
    <mxGraphModel dx="864" dy="1608" grid="1" gridSize="10" guides="1" tooltips="1" connect="1" arrows="1" fold="1" page="1" pageScale="1" pageWidth="850" pageHeight="1100" math="0" shadow="0">
      <root>
        <mxCell id="0" />
        <mxCell id="1" parent="0" />
        <mxCell id="gvTx-zZQGk2QftRQgbIc-1" value="" style="rounded=0;whiteSpace=wrap;html=1;dashed=1;" vertex="1" parent="1">
          <mxGeometry x="40" y="80" width="120" height="630" as="geometry" />
        </mxCell>
        <mxCell id="gvTx-zZQGk2QftRQgbIc-2" value="" style="rounded=0;whiteSpace=wrap;html=1;dashed=1;" vertex="1" parent="1">
          <mxGeometry x="200" y="80" width="570" height="630" as="geometry" />
        </mxCell>
        <mxCell id="gvTx-zZQGk2QftRQgbIc-3" value="" style="rounded=0;whiteSpace=wrap;html=1;dashed=1;" vertex="1" parent="1">
          <mxGeometry x="800" y="80" width="120" height="630" as="geometry" />
        </mxCell>
        <mxCell id="gvTx-zZQGk2QftRQgbIc-4" value="&lt;font style=&quot;font-size: 14px;&quot;&gt;Source&lt;/font&gt;" style="rounded=0;whiteSpace=wrap;html=1;" vertex="1" parent="1">
          <mxGeometry x="70" y="70" width="60" height="30" as="geometry" />
        </mxCell>
        <mxCell id="gvTx-zZQGk2QftRQgbIc-5" value="&lt;font style=&quot;font-size: 14px;&quot;&gt;Datawarehouse&lt;/font&gt;" style="rounded=0;whiteSpace=wrap;html=1;" vertex="1" parent="1">
          <mxGeometry x="390" y="70" width="150" height="30" as="geometry" />
        </mxCell>
        <mxCell id="gvTx-zZQGk2QftRQgbIc-6" value="&lt;font style=&quot;font-size: 14px;&quot;&gt;Consume&lt;/font&gt;" style="rounded=0;whiteSpace=wrap;html=1;" vertex="1" parent="1">
          <mxGeometry x="830" y="70" width="60" height="30" as="geometry" />
        </mxCell>
        <mxCell id="gvTx-zZQGk2QftRQgbIc-7" value="&lt;font style=&quot;font-size: 14px;&quot;&gt;&lt;b&gt;Bronze Layer&lt;/b&gt;&lt;/font&gt;" style="rounded=0;whiteSpace=wrap;html=1;fillColor=#ffe6cc;strokeColor=#d79b00;" vertex="1" parent="1">
          <mxGeometry x="240" y="120" width="120" height="40" as="geometry" />
        </mxCell>
        <mxCell id="gvTx-zZQGk2QftRQgbIc-8" value="" style="rounded=0;whiteSpace=wrap;html=1;fillColor=none;strokeColor=#d79b00;" vertex="1" parent="1">
          <mxGeometry x="240" y="170" width="120" height="490" as="geometry" />
        </mxCell>
        <mxCell id="gvTx-zZQGk2QftRQgbIc-9" value="&lt;font style=&quot;font-size: 14px;&quot;&gt;&lt;b&gt;Silver Layer&lt;/b&gt;&lt;/font&gt;" style="rounded=0;whiteSpace=wrap;html=1;fillColor=#f5f5f5;strokeColor=#666666;fontColor=#333333;" vertex="1" parent="1">
          <mxGeometry x="400" y="120" width="150" height="40" as="geometry" />
        </mxCell>
        <mxCell id="gvTx-zZQGk2QftRQgbIc-10" value="" style="rounded=0;whiteSpace=wrap;html=1;fillColor=none;strokeColor=#666666;fontColor=#333333;" vertex="1" parent="1">
          <mxGeometry x="400" y="170" width="150" height="490" as="geometry" />
        </mxCell>
        <mxCell id="gvTx-zZQGk2QftRQgbIc-11" value="&lt;b&gt;&lt;font style=&quot;font-size: 14px;&quot;&gt;Gold Layer&lt;/font&gt;&lt;span style=&quot;color: rgba(0, 0, 0, 0); font-family: monospace; font-size: 0px; text-align: start; text-wrap-mode: nowrap;&quot;&gt;%3CmxGraphModel%3E%3Croot%3E%3CmxCell%20id%3D%220%22%2F%3E%3CmxCell%20id%3D%221%22%20parent%3D%220%22%2F%3E%3CmxCell%20id%3D%222%22%20value%3D%22%26lt%3Bfont%20style%3D%26quot%3Bfont-size%3A%2014px%3B%26quot%3B%26gt%3BSilver%20Layer%26lt%3B%2Ffont%26gt%3B%22%20style%3D%22rounded%3D0%3BwhiteSpace%3Dwrap%3Bhtml%3D1%3BfillColor%3D%23f5f5f5%3BstrokeColor%3D%23666666%3BfontColor%3D%23333333%3B%22%20vertex%3D%221%22%20parent%3D%221%22%3E%3CmxGeometry%20x%3D%22380%22%20y%3D%22120%22%20width%3D%22100%22%20height%3D%2240%22%20as%3D%22geometry%22%2F%3E%3C%2FmxCell%3E%3C%2Froot%3E%3C%2FmxGraphModel%3E&lt;/span&gt;&lt;/b&gt;" style="rounded=0;whiteSpace=wrap;html=1;fillColor=#fff2cc;strokeColor=#d6b656;" vertex="1" parent="1">
          <mxGeometry x="570" y="120" width="160" height="40" as="geometry" />
        </mxCell>
        <mxCell id="gvTx-zZQGk2QftRQgbIc-12" value="" style="rounded=0;whiteSpace=wrap;html=1;fillColor=none;strokeColor=#d6b656;" vertex="1" parent="1">
          <mxGeometry x="570" y="170" width="160" height="490" as="geometry" />
        </mxCell>
        <mxCell id="gvTx-zZQGk2QftRQgbIc-13" value="&lt;font style=&quot;font-size: 24px;&quot;&gt;&lt;b style=&quot;&quot;&gt;High Level Architecture&lt;/b&gt;&lt;/font&gt;" style="rounded=0;whiteSpace=wrap;html=1;strokeColor=none;" vertex="1" parent="1">
          <mxGeometry x="42.25" y="-40" width="290" height="60" as="geometry" />
        </mxCell>
        <mxCell id="gvTx-zZQGk2QftRQgbIc-14" value="&lt;b&gt;CRM&lt;/b&gt;" style="image;aspect=fixed;html=1;points=[];align=center;fontSize=12;image=img/lib/azure2/general/Folder_Blank.svg;" vertex="1" parent="1">
          <mxGeometry x="61.980000000000004" y="140" width="69" height="56.00000000000001" as="geometry" />
        </mxCell>
        <mxCell id="gvTx-zZQGk2QftRQgbIc-16" value="" style="image;aspect=fixed;html=1;points=[];align=center;fontSize=12;image=img/lib/azure2/general/File.svg;" vertex="1" parent="1">
          <mxGeometry x="114.48" y="178" width="23.54" height="29" as="geometry" />
        </mxCell>
        <mxCell id="gvTx-zZQGk2QftRQgbIc-18" value="&lt;b&gt;ERP&lt;/b&gt;" style="image;aspect=fixed;html=1;points=[];align=center;fontSize=12;image=img/lib/azure2/general/Folder_Blank.svg;" vertex="1" parent="1">
          <mxGeometry x="61.980000000000004" y="230" width="69" height="56.00000000000001" as="geometry" />
        </mxCell>
        <mxCell id="gvTx-zZQGk2QftRQgbIc-19" value="" style="image;aspect=fixed;html=1;points=[];align=center;fontSize=12;image=img/lib/azure2/general/File.svg;" vertex="1" parent="1">
          <mxGeometry x="114.48000000000002" y="268" width="23.54" height="29" as="geometry" />
        </mxCell>
        <mxCell id="gvTx-zZQGk2QftRQgbIc-23" value="" style="endArrow=none;html=1;rounded=0;entryX=1;entryY=0.75;entryDx=0;entryDy=0;" edge="1" parent="1">
          <mxGeometry width="50" height="50" relative="1" as="geometry">
            <mxPoint x="50" y="320" as="sourcePoint" />
            <mxPoint x="150" y="320" as="targetPoint" />
          </mxGeometry>
        </mxCell>
        <mxCell id="gvTx-zZQGk2QftRQgbIc-24" value="&lt;b&gt;&lt;font&gt;Object Types:&lt;/font&gt;&lt;/b&gt;&lt;div&gt;&lt;font style=&quot;&quot;&gt;CSV Files&lt;b&gt;&amp;nbsp;&lt;/b&gt;&lt;/font&gt;&lt;div&gt;&lt;b&gt;&lt;font&gt;Interface:&lt;/font&gt;&lt;/b&gt;&lt;/div&gt;&lt;/div&gt;&lt;div&gt;Files in folder&lt;/div&gt;" style="text;html=1;align=left;verticalAlign=middle;whiteSpace=wrap;rounded=0;" vertex="1" parent="1">
          <mxGeometry x="50" y="329" width="100" height="70" as="geometry" />
        </mxCell>
        <mxCell id="gvTx-zZQGk2QftRQgbIc-25" value="" style="html=1;verticalLabelPosition=bottom;align=center;labelBackgroundColor=#ffffff;verticalAlign=top;strokeWidth=2;strokeColor=#d79b00;shadow=0;dashed=0;shape=mxgraph.ios7.icons.data;fillColor=#ffe6cc;" vertex="1" parent="1">
          <mxGeometry x="280" y="188.38" width="40" height="43" as="geometry" />
        </mxCell>
        <mxCell id="gvTx-zZQGk2QftRQgbIc-26" value="" style="html=1;verticalLabelPosition=bottom;align=center;labelBackgroundColor=#ffffff;verticalAlign=top;strokeWidth=2;strokeColor=#666666;shadow=0;dashed=0;shape=mxgraph.ios7.icons.data;fillColor=#f5f5f5;fontColor=#333333;" vertex="1" parent="1">
          <mxGeometry x="455" y="187" width="40" height="43" as="geometry" />
        </mxCell>
        <mxCell id="gvTx-zZQGk2QftRQgbIc-27" value="" style="html=1;verticalLabelPosition=bottom;align=center;labelBackgroundColor=#ffffff;verticalAlign=top;strokeWidth=2;strokeColor=#d6b656;shadow=0;dashed=0;shape=mxgraph.ios7.icons.data;fillColor=#fff2cc;" vertex="1" parent="1">
          <mxGeometry x="630" y="187" width="40" height="43" as="geometry" />
        </mxCell>
        <mxCell id="gvTx-zZQGk2QftRQgbIc-29" value="" style="shape=singleArrow;whiteSpace=wrap;html=1;fillColor=#1ba1e2;strokeColor=#006EAF;fontColor=#ffffff;" vertex="1" parent="1">
          <mxGeometry x="153" y="187.19" width="90" height="45.37" as="geometry" />
        </mxCell>
        <mxCell id="gvTx-zZQGk2QftRQgbIc-31" value="" style="shape=singleArrow;whiteSpace=wrap;html=1;fillColor=#1ba1e2;strokeColor=#006EAF;fontColor=#ffffff;" vertex="1" parent="1">
          <mxGeometry x="356" y="200" width="50" height="23.75" as="geometry" />
        </mxCell>
        <mxCell id="gvTx-zZQGk2QftRQgbIc-32" value="" style="shape=singleArrow;whiteSpace=wrap;html=1;fillColor=#1ba1e2;strokeColor=#006EAF;fontColor=#ffffff;" vertex="1" parent="1">
          <mxGeometry x="532" y="200" width="50" height="23.75" as="geometry" />
        </mxCell>
        <mxCell id="gvTx-zZQGk2QftRQgbIc-33" value="Raw Data&lt;span style=&quot;color: rgba(0, 0, 0, 0); font-family: monospace; font-size: 0px; text-align: start; text-wrap-mode: nowrap;&quot;&gt;%3CmxGraphModel%3E%3Croot%3E%3CmxCell%20id%3D%220%22%2F%3E%3CmxCell%20id%3D%221%22%20parent%3D%220%22%2F%3E%3CmxCell%20id%3D%222%22%20value%3D%22%22%20style%3D%22shape%3DsingleArrow%3BwhiteSpace%3Dwrap%3Bhtml%3D1%3BfillColor%3D%231ba1e2%3BstrokeColor%3D%23006EAF%3BfontColor%3D%23ffffff%3B%22%20vertex%3D%221%22%20parent%3D%221%22%3E%3CmxGeometry%20x%3D%22332%22%20y%3D%22200%22%20width%3D%2250%22%20height%3D%2223.75%22%20as%3D%22geometry%22%2F%3E%3C%2FmxCell%3E%3C%2Froot%3E%3C%2FmxGraphModel%3E&lt;/span&gt;" style="text;html=1;align=center;verticalAlign=middle;whiteSpace=wrap;rounded=0;" vertex="1" parent="1">
          <mxGeometry x="270" y="238" width="60" height="30" as="geometry" />
        </mxCell>
        <mxCell id="gvTx-zZQGk2QftRQgbIc-34" value="Cleaned, Standardize Data" style="text;html=1;align=center;verticalAlign=middle;whiteSpace=wrap;rounded=0;" vertex="1" parent="1">
          <mxGeometry x="440" y="243" width="70" height="30" as="geometry" />
        </mxCell>
        <mxCell id="gvTx-zZQGk2QftRQgbIc-35" value="Business-Ready Data" style="text;html=1;align=center;verticalAlign=middle;whiteSpace=wrap;rounded=0;" vertex="1" parent="1">
          <mxGeometry x="615" y="243" width="70" height="30" as="geometry" />
        </mxCell>
        <mxCell id="gvTx-zZQGk2QftRQgbIc-36" value="" style="endArrow=none;html=1;rounded=0;" edge="1" parent="1">
          <mxGeometry width="50" height="50" relative="1" as="geometry">
            <mxPoint x="265" y="286" as="sourcePoint" />
            <mxPoint x="335" y="286" as="targetPoint" />
          </mxGeometry>
        </mxCell>
        <mxCell id="gvTx-zZQGk2QftRQgbIc-37" value="" style="endArrow=none;html=1;rounded=0;" edge="1" parent="1">
          <mxGeometry width="50" height="50" relative="1" as="geometry">
            <mxPoint x="440" y="286" as="sourcePoint" />
            <mxPoint x="510" y="286" as="targetPoint" />
          </mxGeometry>
        </mxCell>
        <mxCell id="gvTx-zZQGk2QftRQgbIc-38" value="" style="endArrow=none;html=1;rounded=0;" edge="1" parent="1">
          <mxGeometry width="50" height="50" relative="1" as="geometry">
            <mxPoint x="615" y="286" as="sourcePoint" />
            <mxPoint x="685" y="286" as="targetPoint" />
          </mxGeometry>
        </mxCell>
        <mxCell id="gvTx-zZQGk2QftRQgbIc-39" value="&lt;b&gt;&lt;font&gt;Object Types:&lt;/font&gt;&lt;/b&gt;&lt;div&gt;&lt;font style=&quot;&quot;&gt;Table&lt;b&gt;&amp;nbsp;&lt;/b&gt;&lt;/font&gt;&lt;div&gt;&lt;b&gt;&lt;font&gt;Load:&lt;/font&gt;&lt;/b&gt;&lt;/div&gt;&lt;/div&gt;&lt;div&gt;&lt;ul&gt;&lt;li&gt;Batch Processing&lt;/li&gt;&lt;li&gt;Full Load (Trunc &amp;amp; Insert)&lt;/li&gt;&lt;/ul&gt;&lt;b&gt;No Transformations&lt;/b&gt;&lt;/div&gt;&lt;div&gt;&lt;b&gt;&lt;br&gt;&lt;/b&gt;&lt;/div&gt;&lt;div&gt;&lt;b&gt;Data Model: None (&lt;/b&gt;As is)&lt;/div&gt;" style="text;html=1;align=left;verticalAlign=middle;whiteSpace=wrap;rounded=0;" vertex="1" parent="1">
          <mxGeometry x="246.5" y="297" width="107" height="200" as="geometry" />
        </mxCell>
        <mxCell id="gvTx-zZQGk2QftRQgbIc-42" value="&lt;b&gt;&lt;font&gt;Object Types:&lt;/font&gt;&lt;/b&gt;&lt;div&gt;&lt;font style=&quot;&quot;&gt;Table&lt;b&gt;&amp;nbsp;&lt;/b&gt;&lt;/font&gt;&lt;div&gt;&lt;b&gt;&lt;font&gt;Load:&lt;/font&gt;&lt;/b&gt;&lt;/div&gt;&lt;/div&gt;&lt;div&gt;&lt;ul&gt;&lt;li&gt;Batch Processing&lt;/li&gt;&lt;li&gt;Full Load (Trunc &amp;amp; Insert)&lt;/li&gt;&lt;/ul&gt;&lt;b&gt;Transformations:&lt;/b&gt;&lt;/div&gt;&lt;div&gt;&lt;ul&gt;&lt;li&gt;Data Cleansing&lt;/li&gt;&lt;li&gt;Data Standardization&lt;/li&gt;&lt;li&gt;Data Normalization&lt;/li&gt;&lt;li&gt;Derived Columns&lt;/li&gt;&lt;li&gt;Data Enrichments&lt;/li&gt;&lt;/ul&gt;&lt;/div&gt;&lt;div&gt;&lt;b&gt;&lt;br&gt;&lt;/b&gt;&lt;/div&gt;&lt;div&gt;&lt;b&gt;Data Model: None (&lt;/b&gt;As is)&lt;/div&gt;" style="text;html=1;align=left;verticalAlign=middle;whiteSpace=wrap;rounded=0;" vertex="1" parent="1">
          <mxGeometry x="410.75" y="286" width="128.5" height="350" as="geometry" />
        </mxCell>
        <mxCell id="gvTx-zZQGk2QftRQgbIc-43" value="&lt;b&gt;&lt;font&gt;Object Types:&lt;/font&gt;&lt;/b&gt;&lt;div&gt;Views&lt;br&gt;&lt;div&gt;&lt;br&gt;&lt;/div&gt;&lt;/div&gt;&lt;div&gt;&lt;b&gt;No Load&lt;/b&gt;&lt;/div&gt;&lt;div&gt;&lt;b&gt;&lt;br&gt;&lt;/b&gt;&lt;/div&gt;&lt;div&gt;&lt;b&gt;Transformations:&lt;/b&gt;&lt;/div&gt;&lt;div&gt;&lt;ul&gt;&lt;li&gt;Data Integrations&lt;/li&gt;&lt;li&gt;Aggregations&lt;/li&gt;&lt;li&gt;Business Logics&lt;/li&gt;&lt;/ul&gt;&lt;/div&gt;&lt;div&gt;&lt;b&gt;&lt;br&gt;&lt;/b&gt;&lt;/div&gt;&lt;div&gt;&lt;b&gt;Data Model:&amp;nbsp;&lt;/b&gt;&lt;/div&gt;&lt;div&gt;&lt;ul&gt;&lt;li&gt;Star Schema&lt;/li&gt;&lt;li&gt;Flat Table&lt;/li&gt;&lt;li&gt;Aggregated Table&lt;/li&gt;&lt;/ul&gt;&lt;/div&gt;" style="text;html=1;align=left;verticalAlign=middle;whiteSpace=wrap;rounded=0;" vertex="1" parent="1">
          <mxGeometry x="585.75" y="286" width="128.5" height="294" as="geometry" />
        </mxCell>
        <mxCell id="gvTx-zZQGk2QftRQgbIc-46" value="BI &amp;amp; Reporting" style="text;html=1;align=center;verticalAlign=middle;whiteSpace=wrap;rounded=0;" vertex="1" parent="1">
          <mxGeometry x="830" y="205.75" width="60" height="30" as="geometry" />
        </mxCell>
        <mxCell id="gvTx-zZQGk2QftRQgbIc-48" value="Ad-Hoc SQL&lt;div&gt;Queries&lt;/div&gt;" style="text;html=1;align=center;verticalAlign=middle;whiteSpace=wrap;rounded=0;" vertex="1" parent="1">
          <mxGeometry x="830" y="329" width="60" height="40" as="geometry" />
        </mxCell>
        <mxCell id="ZixjHTFGEJpSoX6t7yC6-2" value="" style="shape=image;aspect=fixed;image=data:image/png,iVBORw0KGgoAAAANSUhEUgAAAJQAAACUCAMAAABC4vDmAAAA6lBMVEX////l6O4AN3dAWotofqQQPHrnbhUALHLohQBCToMANHairsX1ybLEACHq7fLT2eMAMXWPpraIorPzwKXysoz31cRbc5zosre8xdSUorzyv43piQ1bgJn//vrz9fjodSfQVWHTYWrto1nvr2/42L3YeIK0xM778/MfRH4AHGxyhKVejZ6jucRQeZOQrbnK0d5bZJBMZ5UsTYRvmKf76+KAjKzmZwB0fKExQHuFl7X20a7659TrlTbqjyXsm0bxtHpxkKXslWHuoXjVbHXMPk7ciZDy0tLIKj3GGDH24uTNTVTCAAkAFGkAJG9EORxTAAAFAUlEQVR4nO2Z/VubOBzAS2jEEkfQzQ6cS7fT0/RlUlB0bOdOnee5u/X//3cuL7QklPb0OQvc8+TzA6SBJJ82yTeBdjoGg8FgMBgMBoPBYDAYDAaDYUNMJk0bVDAeN21Qwfi8aYMKjNRqDo6+yIR3zhnzgydzTnabGva/bB/IBDmbTCbjMTucEZmz92mvKal3B8onrft2D42Uwv9BSg2eTUi95wgpmeJg3KzU1yPBb9ffxPn3i+KStSu4ObyRCas2qeNtwfX1tTi/+1pcwoefOIeH+bk+qYtjwbfrI5l4X1zyTgR7hzcy4dUmlaMPdI2WzL6L/X1laLVE6vXl5eviU1uktrZ2ik+tliKkNpvJiZTaXimV7xKiflaXExmfifPxFyVA6VI4EvE9mqZ1S2noUjlRrzapTuukCINJkcUQ3nkjuB0MbmUqdyOeR4Jp6rHzpp2U7XhudXu5xRkwROLyTuaH0wWbXgC9M8b4nG3HJ7nUnfAp2JpLXTGmU36oZVXWxtS+5G6w9Uam8inJO5jPPlJPrGrl7Gu11Pf7P1ZJpfZISo3qkupgOXI/vPp1lVTX74sbU1SbVM46KdCv2yan/VI7g0H7pE4vLk6LT01InXKElEwpEAGXEon6nB4+fOT8+Xgvzt9/FJdwX5DQRCbw6lpeWuqV4PHxUZ4fiksRhRxK5RnWJ/XjreD+8aNMKP3nBYIYxpFI1Nh/Em2gk8+fFYGWzL5Or2ekVtFuKWJZntXrsYNFmpb66+9cKpgudr6BzOnP4oakHt7mASq6StN0OmWHUS6Fg6ghqQK+oPR6Xq3LypPQBnpbaKMUaaNU5+qqhVIGwwbwNv8q6tlYcVLfU/pTsWy322DzUYgqOsqywQtLBWn69Bdu2cyp2AW8vBRynac/DoWg6tlpA1IQPEPKNVJPo2kpHKDAwmGoXWRSAWaPwPrUWJby2D3R8uZBFMUoVIrj/O2gpf1pXy3ljajjOEnsDwNNClAb8guZ2uKSFLJdxwH90kS15nX+LOq0KJBxNwNDHmw8SQhBJFNKO1biQpokEFK3LMXyKYR+rMSrslTmQMgLO1pZnACZTZV8K8mlQsilSGoLEkplwlbenXYBTAKMUVyWcmmXdwClQPlDryQVOBSGrDCEthppWZ02YmXtdVJdB3AgpVAknKIZ7FNbdHUAdSnkQ9EnmFK/aLAkZUMqCiEXKN8zgnmdCK6RCkJBl8JMpopbWdthZ51UJ9Vq1qSYsM1fBkVoPl5kUeCivM7VUoubIVhaZljgDtZLIegXv4IuFUAKZ7PhcOgA3y6yMwDmRRUpb6XU0uxbSLGvVy0VrJWKU8lIGXgZcBdSxbR8hhRrG62XylZ3XwRh1e4qnFdVLZX9q1Tkwz5ZJ+XZdFZ0ui7l2TCpiHwBmNepS0H5mmYEfyohqUqKxBB2MemQEICyFGLZuM+uF7ml2Rc6MOZVEoyU0bqoM4N+pOaK5rENfbWdqojO3/UmdhxT6mphGflsasU2CyK20l5JivRZnIm7fRbk1Joxi5tJzApTdU/GfkA7RMiGavhgPeRX/Njst/AZbmn/FADg8nzaVWdsOaKTFPiA35lo83pRJ9WWucSfDWcu1f72CuK4akEmEcqyLCwtvR2LRbcsQ3qJ5QUZo1G/n6FS4eo6vQCFS+389zcBDT84VGPFtH2PWB3PMi9eDAaDwWAwGAwGg8FgMBgMho3wD2+wnxBlqD95AAAAAElFTkSuQmCC;" vertex="1" parent="1">
          <mxGeometry x="822.25" y="130.25" width="75.5" height="75.5" as="geometry" />
        </mxCell>
        <mxCell id="ZixjHTFGEJpSoX6t7yC6-3" value="" style="shape=image;aspect=fixed;image=data:image/png,iVBORw0KGgoAAAANSUhEUgAAAW0AAACKCAMAAABW6eueAAAB1FBMVEX///8AAADj4+PT09PIyMj8/Pz6+vrs7O339/eQnKnBwcHOzs7228Lkz7mPj4/09PTYv66ttb6+xMtAQECvt8AzMzO2vcWnsLrN0dYAJ1Rvb2/V2Ny1tbXe3t5JSUl5eXmioqK8AABXVFTQAACIiIi7u7uAnLSbpbFmZGSYmJitra3Q1NmIlaO1AADEAAD88fHmMioSEhInJydefJfbAACqAADdHxb64+LTIh3EHRzy3NzpLyfbLikYGBhqamowMDC7IyTFOzvy0M/fV1TtoZ/zxcThTkrzuLfoR0DhpKTpgH7WYF+7QELoGAggICD///Xr///lxseoHybJaWqoTFTLdXbgtrfXiIm/Z2q5gYbBpavPXl3QOjnclJXWxMfkhYTlcm/MNDLbTkzrj4znaWbUiYq4ISPSZWTrRj/EPT70rqzrZGC6UlXynpzIe3zWn6CwNTm0j5a7KCqqX2b66tyats5jRB1dQylQYnvG5vCzmYKNdmkdNEYVJD5pVT4AECcAAC01DACNbk8cAAAgQmFIIwBvf497a1p9WjVPZHbC1+yhg2MyAAAAABUXOVk6Y4rMs5SNrMJDa404MCqzpZRES1ZnNwBvShlWJQCKbV4AFytGOyeC8zNNAAAbZklEQVR4nO2di1/bVpbHJdmy/BisWhhbi5Af2KxfYAM1sg0mIQbzjJNm2STdCRQCNM+mmZ3NdqftdDrb2Z1pp9PZbjfdx8w/u+feq7dlwA4EcP37fEL0six9dXTuOedeyZQLxFxFsdRAA529eEmQLvoYfiLySoLAUOJFH8ZPQowQLvDwv8hf9JH0vTgxFJFJ8yTJF3ws/S45EhU4bYYTLvJQ+l28GI0KJu/BCwNXcl7ihGjGhncQlZyTuEjGzhoctzDIL85BiHVUakPLGT58oLOSR8hkMiH4E42IEsOzphWDkPusJQPrKBcSKUaMRKPRUEQQJY4wL4gD4z5bCb5MJgLpYwbZMctJohAORyIYuZcRCxd9eP2lCMDGcTWX0cJrlmOAOZIoDvLJs9SdSXAjZFLKWLIZ1stzjCgOgsAzVOPvfD7NNwtRW/LIidLAuM9U21N/39CikIgFNycKDCUNjPtMtT019cu790po0hMycPPguTn038C4z1TbU0tLU1M3tjfulLhwmOD2AmvRg6YGxn3G2p66f+fuUjKZLO7cfP8ffl5CFW7Um4DFi4VBzH2mujt1l6LmNx7UarVqtVjc2SLMieTCwLjPVnenbnrhv9LDvc0bgLtarSrKztbeWqME3kSSBsZ9trqbvIGMeW8PkDc29neqKQUhT6Xqy5u7Lz8onbiDgboRwd0oqlxLjbW95bpSr9bByhVlenV/pVkZMD8z3U8+9VJsbcO8rFlerq7WywpRWUHMS4OS91nofnILXMlDY4HnMLVCra6xleazzdVpYL6A3Hl5/QiQX9xh9ov2intUs9jQZteqCkyvrJK5UmXtxdETsHDizg/2BsTfUNvFNba4SaZLR6kDxLNRrpi2KDVXjtbrIIT84H7DcxGH2SdinxZLj6uYYLOa2sPLSuVntq0a66n1Otg4IE9VH68NTLxXlZJba8UmTKykUhrk6X3LJo3n5fXGM6W0tllPVau1WrG49baA913zfK94H5w3tZ9KNbVFy9Om9c3VsrJGUZvYmc+vHBSBdy2ZfNxs21ObPKxlks25ujs0ZpwOdveJy6/H1dpDaktR9LaS2izrpgusy4fI0dRV505VNpYx8OLD3RMM3E9f1ybd9DjAo+NdHRhLZwOBrj5xBVQp1mo71eq8seSwrJJvAOsj3GRWUiZfXtl4Cp8BC787Tx0jN0371cnYDNCmZG9XB+amUfkgMINbFdnVJ83zXrVWr5odw4synqvst8p1dflKuWH5zPz9WrK2VEs+Poa3eyYWI1MuenS8++OaoFn8F02PJcbG+qN0UypCfKccvNB5viivob8tpXWoed71cluDde8m4j21XbGv0OSmx2gyZDZ7LQ602Qlc0ZUT6QRD8WM8l3ODQx9Lp8kdIOfSY+hLuHw6iByIP01PTPD4L+fmc2PM2Fmd8MXqcRWH06nqPok1XrSeQdDXUtZ1/o3yssPnKtu1JeD9YYd73E3zw6NogqPla0CbpxGvOD0cvx4HJ56nZ9Ng9fRolh7mwXrp8VEaLkeevh6P0dcoaubW4i2amUV//X4qHqf6hHazWEcFQCCulA9WKtRha+UQDPuFscV+WwiOiuPbS1NLS0uP5pbuOO4W/O4Ejfrc0iNUVqOdwL6cA9q3AK2XzqK5GYC7mIYpL+DPwf8BOqH5EPyXCYwF3O6zPeuLkqdabM4/OwLi9fq0Ul5fn4Z0fd3kkSvlstVfzG88LiaTN3Ybv3ywPfXo0dy2k3mjVm4GQjgPPaHTZmfSZCWDqeZp3HDm4aLMkIBldAT/F19E1o5WjmHv7fL7+wQ2RW2lkKOmGof1sjKNtbBvXr+nHBgzpeYmJDjFB8jr7E41qMaNuUe1Rw6tJaKdoCn8T6PN0GpMx9CIXpzEiDIsDdJZ5OSHCXR0Gcy0+0krqRV1av6wTnArR0YQUsL5DZnc2EoB6sekw35+6gH67+UcmPfLtr0i2h46T9EJg7ZLbTdV7KMxdQbQ+6/T4OVnST6DXFC/0m6qFRKk0oJq3a0nGuJNRcFnXHp2kCqmUltrWtz8NEkuSeXm3KO5j+17xfFyesRNe8y2PUFWEtpp2tgSGXSeimXxkhxN9S3tSmpLm5xXFhYQavIHt42VsnII3ndtOaUoqYMNI4O8m3ysTe4C7m3bXjFDDkUeBm1qeJisJLRdOEyhxtWF19PgdrDxL8Y12qSh7Sd5UlqA1wTHva88p9aeEN7TYN9HC0qpsVlWoBU9NDeW95JJY7YBzuQj616JxV7Df3XaLnrY70oENQcep4MudxYI8zG/K4eWxei8yz9yy6PRlul0oL8edGPragfCSllZpY5w7NdcR7ynW6svlPqT1TKE48vWQlRlauq+adb70ZwNd2AYcZZxyJ0GW/XGUPDHZGl62E1xw6RElR+BiBu2Y+M0PYLTnNwiTadRjOMfxpFOgqb7Jhwhekh6y/bK5U2KVVrEGzexfU8r0ygQTx3ackb2Rm3J6lE/npt7/60c7VXXwQ76u19GKXuztaAtXnuCm8x6fX2t7SOPa0l7UvNybu7D8z3O/hCmfVRWUNS82drUlzcJbWWl7RMbRYsfIbo3N3fvHI+yX7QK2cty+QkON5SW5p+bq61pYtupfdsHGsXaU4f93JmbO7YIOxBSfZ9aLS9jN7zWUntuGqstHAwur0NCr6xacvNSrVZz7Eu4M/eL8z7WKy+Psr9a3ifTqy3sNirPWwuK8nxhWilRh2VoJ+tmuk9rxUb7bpDuDFz3SSqlqqlDMtlotQBraR9Ytw5Lywst1D420HA1E+7tarFjt+SdOeeK4ECamqmq1g4eKZu4I0FpbYJRK8oRXsrupwC35kw2isX2GIUqzd+59/LD9z+ae9QnfVrnpZVqdZ+E05VymW1OKwstNA+xoE74GeBWC4GNYtEydLA0f2/3/V/MIf3i7ss7g2byBG2BoyjjzoPnyv5Ra6H1HLEvQeZuoGtU4ZKgiVJNh+0Bzg8eYc5zH314b8D5NCpVUVeZ8hyVSaYXFlrrxCk/V1pmh1HaqaYQ5gPsRjzza/ef1qawbn7cGbQrkc6Ox7LphMuhlCePBePZ8WvxnL+th5d3BwLuk+pRcj4YHx1N5yaYU5zlZVEztblKorx1lKirnWIvWq1Dy2bsVjVVoTaLzVJz92YtOVVDsD/avdN53AKfpk1KW1e64uaVMVuvox8tPHa0jzc4Y3x8MX/6071g7adK1IoC3gSi67LWzd5sqS2kSZvVg43izkEVjSaZSi5tbzSOrT37aYssgxzkGG3TjIW3+yTaE9ZPXzv12V6wSql9+FtZBncyfaTVnkoLymrbho16DQ2TqgHuxxsneukxG04z7ZydNVLWdO1Oop2wfXb0VKd6CbRLRgC+AGdidPauKuvWZLGysYxtmpA+RX+KTCw26JYZlz8Ys9C+RhCNBP0yz8n+nGro1w1HfQLtgOqcJgIudz4+e3Voe+qoJFV6jjrc9c7fzZY5dyw19x6moCmtFlPLu8d7D0OYYFzfmAtm9VWjhLVpkB9D+I/om59Ae9G6c9foVfEkG6jDvVlV6tXV5Wl1vOWz1rRu5aW1o2qqikb3POzm6QRXmzfV2RA3Yms0/VaHcDxtvLFlDGd3QwwvTJ76Q4o6TFX3q9VSRe1cb+iwKysHaJR8VVG2TnbUFuGIwzGEIy4mZ1+ML4/eTXM87Sxa29XhXBKB1/Yup47md8rzaODIPiwqKQR2ZWUVPXSjpOqb3T9yM2KPQnQNtxkmEY4ytEHIx9PusIdLr0pqv1FNPWNXcVNZKk/DHf8E+WxAjYbyKOXVwztc9/epFwFxHOuOvcCI0xpsseog5GNp82hloutjunhtVfdSBxVqmYyWoo7KHur5Klt6tqwo0wuKsvwMrJzjuh/M63VwzUSxjhwZU5x4LG3uBNqsPJZI5F2ONuJhZPkUqSfnT+RgF44RAedyQ/LrCbi7fNaCWivW0DipI20w/Fq5tLe+dqQoC4D6SH28Bmh3P4LmOgC55bAcI806rACNG77+ZE/ScUQ4l15Ug/C4biVsbHw8loC7Ij6Dvz4+HBuOWU+KGY7FRtRvDIyre5gJ6pdMHiHr3dhcxqixXCLgp7pRqVrcmafYZf3Jg0p5U6lbUFM90o47NoVoQBSowwMeY4YrOZ72uMnn2GXJe7SEniW3GmmJIfIZaz8KVGWYwVN81rwLbSsXacSDZOmEzAVd7omOp++kreIeS3kPUvowvxVloT6tKM835s2v0uW47kvW2Ibp9jHX+Ew6XDzOcPbH08ZrnVdbSOnXG9MOemmNtre9ndW3Zmasu1DDJEzbpSXIQDudZruivYvKeaUd7Wmy5r4Chl1e3Z33Ul7OaBp5rodmkkqbz9YQ8jCxTp+Z1T3ECdkNudMdTpbAjuXyeTVfJXcApp1DK2Px0dksyWYXzRcdN97IxDjyufjYRF69csQfYdoY9rXc6MwYlZ9gE90MK2oW71PUfLWKuxhLK+uQLqbqhxWKY9C38rr/gKlexuKRdHzc+lGe3NIdhCDO4qkTaKtW2hYF4sRJ9b485k0eksK04VrO4lWcun+zK0FkcXMygndMzIvB0SppZTDtRW2Vl/K4u2olK8UHqJncQbF1cz+lQApz1ESAGUybYjXI3t5os8MEiaUYenw4gVJ64jtPqkqpFjhr9b3YfRnR5aj+9ay6ueERZ6wXy6v5jJz1jkS3IhkIqvr8jpZyvDwPd1hqr7jFglnvILN+uKK2iyptjNlD9Uxb96ExU8SFE8mOT9AEtdv55IorN0J2Pmo+tKxx4+PjR7N4/KxK23QguFE0XElevc4e/SNEuPyFmxJC27SqK23VSpUbxRWqsldF2jKGLOi0EWiepTy90tbjAyPNcXXwt6btT0dbjXos146ze5e0Rp9tczyyZsxEMdWi89bFJPMd0Y+8UzR1kraLlY1irdHYArNWHu5+YHpvlyybQhCe8/ZOG4JUQmREs6ozpK33VmS1Njyh3/ba12uAWLtpE/+s42e0L0bUZ9sOST9yxxz4ZN1Prj0obq1tFWvV4tOXjPlF0KwsmxtrFhrJnmkb5q1Gx8yJnoTc3qehTXlU815UCWdpze1rxz6jOm5Cu+3AdFeCvHWW0uNyk1za7eGy3x2n127y5lLt4XK1Vq1ufiCKXoox3rjolW2j09+Itp4rEMTHt5KIHklAT0UbjFdticmWtxAz2WWIGVG/DVO0Zp+c2WfcUqfxzRAMuA35tfsF0+6p+3MjuYQeLK0la7slShTQG7dF3bh5yXLHget+I9p6FyI+s5MjQFIFPCVtvc8NHbLaFNqV0FbZDBN9mVpPd2mWH3DehU67u+SRCGCDasmdDQ9+ySXizImieltx5pcBgh/xsG9IW8vOsHtFxtgpu2Fv0afMbkwieSVyqCfRduq/ICeGQsWcsbPOtLsrjGBh2LXiDTLWWlB/KUF/eytjos2j8t8b01ajY3w+OAbuUAhg9K26oK0GCxNd08ZOHfs3HPbhkz7Jtrt/JmUDPS+dvKmm64z2+laPKJIJSdLaeJ7BKfub0yaHin2EqfLUpoSBuAvaJGobV5Em/HbpTsbuwOLabZbXbyl8nIE2ealeae8C7NrTn6tzrCBov3DDEdfNS6qN8wxDjPwMaJO8Qy9DdHAlI7TeedMNbfw5FIvQdKd4x5E2bhLRtRjWOcqGd7GrJ9r3p5aST/8xrDkLSRD0CITBuDnyy3A8IzOqjb9BvK0rr50ZKZ84HjUmnDdNn5Z2TvUEiJrzUAdH2nj7nIqYLOE6X7BeaKMXnTcj4ZCKzxMRBMOJYtz4jbmcLMumhPLNaft12tiV3HKquc7SRrjcFe28SnvUwGaTM23kuWZJxqlVRtB2zn0d3dNmP5qqvaSoaCiqmm0hEjG//FkG3w20OcnykuKzoG1kiRiq0xnFTabdHW1cXvGqF9IxJCb1bftSnnyJ3kZS6rgix560rmmXbsyhV7ewQJsYNB+JRCzxASMWJCTLryH3Vt+2CvkPtZ5M2v22rAwj04s+XfttFAJieo5dFc60cWuSdpsvvp+mO3TCdUt7fm4bV/m8Om3BatogqQC4GWuE1kvfDTubMM+OmQGTfgardXtI8V+3quNpL1qCmoSOMt3Oym/Ut9tpo2+ZHbdQxCVWSx8IT1KaLmnf056IQbTxTc2EIxGzJXCSKBYAt62LvZd+SRTC5nT/k7CiJD0vM0ZixqsZobEE0064zZGccaZgw7NGU0Z2zmvfahm9OTFCH0cbZ+y0pbhCondjUy6oNrzd0X75T7qBRqNRHIRGzKbNA2oR0eaAt8VP90KbdK7Egv6Ayx0k52QyGK1LO553u935tFrsMLtch6TO6MEnydK1fECWA7lZ80fVkn8OhVWcH7UEi8fSVq+y2ZbJxVtMwC68rkRMvye7oi1EjelQNIryRxFMW4Mjkx/NgqgEvoUpWJxJz+NJLLJEBI4jis2n4kBbf5ej1nFjkg6yLRmcOZa2uifL+dkHK/dg2yETbEqMRkPwTaFwGN/cGDWowKEMB5k1y5gbSuYsaNuCWGbcvkHccj91R9tULOJtOyaG2Yk2uctsAZJWlLfuvQvaUTNsigNXwlER/Es3vARNJWKN30RZELWfl4QoUM1u2F5oU1zC/PRBrr2ZZcyPiVxP2GJMB9qmIr+sD9Bx2HnA+OJhbbcdafsdGU4YvOPaShc9M3O6rpuoz+p4gbYgRcG0pQj6qUNw34QnL4hGrOllJNxl5tUy+K7lSsRHs6PxfKe3uTBjaRwCdBo7dZx4fzA+PjweTzgELtxYOj4az534lNQxQruIB8d6eQ9NaNKGS4qi3/AMIwFu47eEJFGwRNY8JzM8b+qnPHsRI06c3xe8bQmTbb8+i2BjRcw/2+QV2n/K0wOwmfMci04GVV2dZ8JOkDSZsS7wShFs2+BNrEYrCe2/wYxgM10HgN2IjJ7vk/eGenyT5ryfE6PoR4Gjasxt2VJo+wlm8CQeoH2+RxiwxxVXWGHDtD2SkPH5MplwAdOO2tyx3bQ9HApLPHKvjeSple8b3NzkJPHFYNS+SV8GO2opkxGQL7H4Yy+EgaZZXi7goit3/rTVykkf4A75Jr3IU/smJzMR1U/z6FeYUdAdMlt3Qf/JQ9RdUxDVjRlTpfvclO0P3PykzydkgLQgGYYczUAqiXCHQqYO34hu2qhkojegsnUwzzlpuC+aSgloRwVrUCFmMjj7QriNplJUTdvLiIJoXBqvdJrHVM5IV/2VrQLQti3ifBnVovkQ4FbDEI6YNod+1d08DpCT5P74wYK3oYjPN2lzuxmfXmb1RMCZRPB6IRLheAkVTKw3AiNJ55nb9JcQbWsQHfaZ5wsopwT6TCQSEcC8RZshs5LU26/WvkoHrfpjT7u5WhLBk1hSSWkybNmAj0TDIYHDtamInTUeXdKb2/6ZvYT3nz3t5mqJAdqTJuvkfZm2TXBxClRwiPTAkfQW/7XR/tuednPF5PNZjDvjs3thTlRpOzaGvToSRPtvWK9JP4n31iFXMqnniMKk1S/wYghF3YR3e0mK4gs9OhJMu7dPXmllfIYvYSwtJi+FUXkqLAqhsMAIANxeFKSYgpN7OY1+orSR5/aR7gTWF9IXewF1BhWoYE04hFJ4jyygwMSSp0uFHh2JI23eKCd68aQXl85duVyUM5Z7qPlcThv56c8lMua7i0nkchnTPci9ziVybyPZPa2QL/H50BFGtESHBdQoxyShtBCNqifngTwSgEv6c6lioddE0on2K2gs/5lMfoKbzSGYv/0vuBH9FbnI79D0p5+h+Xdh5vbnpIH9teYJh/5KFnyhjhV49Rsy/6U9g7tACRg3A1ZOjIKJ+CZ9IT3agwQ+YtqaZyTIJ0UZjUZj0CM5vcnRkwDL376HJgDof1CYduTf1Zjly0/VLchz+xCev/pXW0AzZEQ4+KK9+p0+/26Ph3kOwrgnJZzWINQZwTxcJNRW6EbPf8iSWEDFqV6/09lvf0XTP1AYG6Y+hB6H/jLE86+B27+hDd5B6DK8nGWp2wD711GOlz9X6d6GC/N7iedcf4AF6ONf0/Q3Is8xn5Orc1lUwLh9FAeoo7Z2T4xGnXuWvbIotqc7pxXQ/m7Y0AixTgTsj+pfihjrF/grkB0jou8Yzgbs/1dkChZ+weJdqib8Fd7otnqF8KaXyLgpzoe9iU9sG2PGZaKCwwdQ0ZVjxLbu41PLnt2oNIDvF9S32uyQYZTvEN/yjnFL/In+7j118lu82ZCeIr3KoeDplX45bid6DZ3OR2wE426nB0Gg/QKwnCQI6PBFsfdiq7NtY3BZmv4zmRkiiJHA3n/r1aGTdT+YdvYuuYDmsRq3f4c8y+XMmpgMynN89hHEmYzVWXgZEaIS7Nd5Qez9VDrF27dxq/gpmRkyJfRf46Xv6Eu+B58e00Suwdc4QPlGb2a+xa3rj5lLWRIWkTuZtISvfCZjxg9GDTmOluJIQs9t5DHZzc9MFaoh3Ulr3sKg/ZnVEyEPrQaLNP0jqazd/oM6P9JWj7gE8giEd0E32UhGd9oQa4ejltE8toFT3akj7e9pvXE7ifbsiK7rxEOPqQE2/WdyaG6N95eXKCbRxYrEn5DBrRSjJZccGtATsibunNA2cKoLdaJNYmSVqJn2VzZP8plzkZafSOMR25pP9waC/4Xxv8GxnqNwboNibjBi3EHpYYQoBCaSPVwpCG/SzneiDb43/IkWiZj99if0l+/Z/PYPTjsAcd+qAbcq/vXlCrgtgrwdB4SZkI/hC+FM2wg1slXbwKmu1IE2ZjikmeKQYZOviH8xaMMCPQJ8lUc1BnfwR83N/Te6EVyJmIb4W9NNcvnEMhFUG8xkfJlwhyiPcS54n1bOtAEhsmAt4B4yWsyv9exGs/b/MVKWr/Dkt4Zv+V9k299bNristq2KK0TwOLVMBhx2+zN6kNlwExOMi6J6ersPpu0xCxbe/kTNwf9E6ODCByLIA64vkCWbaKOV3+BnwaEp/O5TUzRz+/9wRIj2Mokb/Nck2bzs4iG6RqMw0UDMiGhmziPTdru4ccrd02vC2nrKkKP9TMtdUMr4HgZ6nab/ks3SmuM10SYx4Hh2XK9CIXf9XZZsjSL278kGxqevgjycXBDCZCBmSBAlBj0eWUBe2yVziUCip7HVbbTBCQ8RG0X6GreBsODd12T1XwguM23qtf5Ztef6c23BF5Jtg0vstZ3l5RipIAqRcDgcigh4lElA5gJpOdHL3tpGOEyy1OtgOmKsTn+KaVOvwFF8E9WXp01lm9LrcXqG/iaj33Kvgn+FBb/Xhw28yv3GusEVlMfr5fHx814Pz1PnlxgPXa7aXZ9rQPttakD7bWpA+21qQPttakB7oIEGGmigt6//BwxQbZLeG7z8AAAAAElFTkSuQmCC;" vertex="1" parent="1">
          <mxGeometry x="200" y="30" width="132.25" height="50" as="geometry" />
        </mxCell>
        <mxCell id="ZixjHTFGEJpSoX6t7yC6-4" value="" style="sketch=0;pointerEvents=1;shadow=0;dashed=0;html=1;strokeColor=none;labelPosition=center;verticalLabelPosition=bottom;verticalAlign=top;align=center;fillColor=#505050;shape=mxgraph.mscae.oms.log_search" vertex="1" parent="1">
          <mxGeometry x="835" y="268" width="50" height="50" as="geometry" />
        </mxCell>
        <mxCell id="ZixjHTFGEJpSoX6t7yC6-5" value="" style="shape=singleArrow;whiteSpace=wrap;html=1;fillColor=#1ba1e2;strokeColor=#006EAF;fontColor=#ffffff;" vertex="1" parent="1">
          <mxGeometry x="760" y="200" width="50" height="23.75" as="geometry" />
        </mxCell>
      </root>
    </mxGraphModel>
  </diagram>
</mxfile>
